# Blender v2.79 (sub 0) OBJ File: 'Hitbox Triangle.blend'
# www.blender.org
v 11.956021 11.000000 1.192260
v 16.556021 11.000000 1.192260
v 11.956021 11.000000 4.292259
v 16.556021 11.000000 4.292259
v 5.756021 10.999996 17.292261
v 10.356021 10.999996 17.292261
v 5.756021 10.999996 20.392262
v 10.356021 10.999996 20.392262
v 3.575518 10.999998 10.157360
v 3.575518 10.999998 11.557361
v -1.024482 10.999998 10.157359
v -1.024482 10.999998 11.557360
v 2.375520 11.000000 4.607389
v 2.375519 11.000000 5.907389
v -1.024480 11.000000 4.607388
v -1.024481 10.999998 5.907389
v 0.171718 10.999998 6.859092
v 0.171718 10.999998 8.959091
v -1.028282 10.999998 6.859092
v -1.028283 10.999998 8.959091
v 0.171718 10.999998 12.659060
v 0.171718 10.999998 14.759060
v -1.028282 10.999998 12.659060
v -1.028283 10.999998 14.759060
v 5.756021 11.000000 1.192260
v 10.356021 11.000000 1.192260
v 5.756021 11.000000 4.292259
v 10.356021 11.000000 4.292259
v 11.955998 10.999996 17.384012
v 16.555998 10.999996 17.384012
v 11.955998 10.999996 20.484013
v 16.555998 10.999996 20.484013
v -1.343977 10.999996 20.396070
v 20.656025 10.999996 20.396070
v -1.343977 10.999996 20.796070
v 20.656025 10.999996 20.796070
v -1.043977 11.000000 0.742263
v -1.043981 10.999996 20.742264
v -1.443977 11.000000 0.742263
v -1.443981 10.999996 20.742264
v 21.020823 11.000000 0.650232
v 21.020821 10.999998 8.850232
v 20.620823 11.000000 0.650232
v 20.620821 10.999998 8.850231
v 20.956022 10.999998 12.742266
v 20.956018 10.999996 21.142265
v 20.556021 10.999998 12.742266
v 20.556019 10.999996 21.142265
v 43.312637 10.999992 50.811195
v 43.312637 10.999992 36.311203
v 42.912640 10.999992 50.811195
v 42.912640 10.999992 36.311203
v 27.188269 10.999998 12.442266
v 27.188261 10.999992 54.442268
v 26.788269 10.999998 12.442266
v 26.788260 10.999992 54.442268
v 20.564703 10.999998 8.842262
v 31.014702 10.999998 8.842262
v 20.564703 10.999998 9.242262
v 31.014702 10.999998 9.242262
v 20.589703 10.999998 12.342261
v 27.189703 10.999998 12.342261
v 20.589703 10.999998 12.742261
v 27.189703 10.999998 12.742261
v 27.115519 10.999994 31.242260
v 28.815517 10.999994 31.242260
v 27.115519 10.999994 37.642262
v 28.815517 10.999994 37.642262
v 29.013058 10.999992 40.668526
v 30.713057 10.999992 40.668526
v 29.013058 10.999992 44.668526
v 30.713057 10.999992 44.668526
v 26.314875 10.999990 54.415504
v 43.314873 10.999990 54.415504
v 26.314875 10.999990 54.815510
v 43.314873 10.999990 54.815510
v 30.842152 10.999992 50.462284
v 43.092155 10.999992 50.462284
v 30.842152 10.999992 50.862282
v 43.092155 10.999992 50.862282
v 43.288078 10.999989 64.446564
v 43.288078 10.999990 54.446564
v 42.888081 10.999989 64.446564
v 42.888081 10.999990 54.446564
v 91.255096 10.999990 52.311459
v 91.255096 10.999989 64.311455
v 90.855095 10.999990 52.311459
v 90.855095 10.999989 64.311455
v 43.226234 10.999979 64.361359
v 91.226234 10.999979 64.361359
v 43.226234 10.999981 63.961361
v 91.226234 10.999981 63.961361
v 43.140079 10.999994 36.543350
v 91.140076 10.999994 36.543350
v 43.140079 10.999994 36.943348
v 91.140076 10.999994 36.943348
v 91.255096 10.865843 36.675941
v 91.255096 10.865841 48.675941
v 90.855095 10.865843 36.675941
v 90.855095 10.865841 48.675941
v 83.453491 10.999990 56.584660
v 85.153496 10.999990 56.584660
v 83.453491 10.999990 58.284660
v 85.153496 10.999990 58.284660
v 83.453491 10.999992 41.058464
v 85.153496 10.999992 41.058464
v 83.453491 10.999992 42.758465
v 85.153496 10.999992 42.758465
v 67.922897 10.999992 41.058445
v 69.622902 10.999992 41.058445
v 67.922897 10.999992 42.758446
v 69.622902 10.999992 42.758446
v 52.162395 10.999992 41.058460
v 53.862392 10.999992 41.058460
v 52.162395 10.999992 42.758461
v 53.862392 10.999992 42.758461
v 67.922897 10.999990 56.584660
v 69.622902 10.999990 56.584660
v 67.922897 10.999990 58.284660
v 69.622902 10.999990 58.284660
v 52.162395 10.999990 55.516888
v 53.862392 10.999990 55.516888
v 52.162395 10.999990 64.016891
v 53.862392 10.999990 64.016891
v 91.253647 10.999992 52.270813
v 97.253647 10.999992 52.270813
v 91.253647 10.999992 52.670815
v 97.253647 10.999992 52.670815
v 90.823105 10.999992 48.442375
v 96.823105 10.999992 48.442375
v 90.823105 10.999992 48.842377
v 96.823105 10.999992 48.842377
v 31.079672 10.999998 8.633982
v 31.079666 10.999990 50.633980
v 30.679672 10.999998 8.633982
v 30.679667 10.999990 50.633980
v 43.312393 10.999990 57.784607
v 46.112396 10.999990 57.784607
v 43.312393 10.999990 64.084602
v 46.112396 10.999990 64.084602
v -1.343977 11.000000 0.796067
v 20.656023 11.000000 0.796067
v -1.343977 11.000000 1.196066
v 20.656023 11.000000 1.196066
v 2.375520 11.000000 15.607388
v 2.375519 11.000000 16.907389
v -1.024480 11.000000 15.607388
v -1.024481 10.999998 16.907387
vt 0.114068 0.182564
vt 0.000286 0.182564
vt 0.000286 0.296345
vt 0.342776 0.182564
vt 0.228995 0.182564
vt 0.228995 0.296345
vt 0.345874 0.087715
vt 0.345874 0.036330
vt 0.232092 0.036330
vt 0.228422 0.296918
vt 0.144323 0.296918
vt 0.144323 0.344633
vt 0.453460 0.296918
vt 0.376382 0.296918
vt 0.376382 0.326600
vt 0.463049 0.182564
vt 0.385972 0.182564
vt 0.385972 0.212246
vt 0.228422 0.182564
vt 0.114641 0.182564
vt 0.114641 0.296345
vt 0.114068 0.296918
vt 0.000286 0.296918
vt 0.000286 0.410699
vt 0.544454 0.453895
vt 0.000286 0.453895
vt 0.000286 0.468576
vt 0.645360 0.484404
vt 0.000286 0.484405
vt 0.000326 0.495664
vt 0.415611 0.364616
vt 0.114641 0.364616
vt 0.114641 0.374510
vt 0.422953 0.375083
vt 0.114641 0.375083
vt 0.114641 0.384977
vt 0.000286 0.521386
vt 0.532476 0.521386
vt 0.532476 0.511492
vt 0.935117 0.123053
vt 0.000286 0.123051
vt 0.000410 0.139366
vt 0.402804 0.345206
vt 0.144323 0.345206
vt 0.144323 0.359887
vt 0.399014 0.411272
vt 0.235763 0.411272
vt 0.235763 0.425954
vt 0.000286 0.411272
vt 0.000286 0.453322
vt 0.235190 0.453322
vt 0.228995 0.296918
vt 0.228995 0.338968
vt 0.375809 0.338968
vt 0.420782 0.496237
vt 0.000286 0.496237
vt 0.000286 0.510919
vt 0.417644 0.396018
vt 0.114641 0.396018
vt 0.114641 0.410699
vt 0.114641 0.395445
vt 0.481671 0.395445
vt 0.481671 0.385550
vt 0.440735 0.532427
vt 0.000286 0.532427
vt 0.000286 0.542320
vt 0.999635 0.018313
vt 0.000286 0.018314
vt 0.000362 0.035757
vt 0.999638 0.000286
vt 0.000286 0.000298
vt 0.000363 0.017740
vt 0.440735 0.521960
vt 0.000286 0.521959
vt 0.000286 0.531853
vt 0.312840 0.139941
vt 0.312840 0.181991
vt 0.375236 0.181991
vt 0.385399 0.182564
vt 0.343349 0.182564
vt 0.343349 0.244960
vt 0.375809 0.139941
vt 0.375809 0.181991
vt 0.438205 0.181991
vt 0.388496 0.036330
vt 0.346447 0.036330
vt 0.346447 0.098726
vt 0.343349 0.245533
vt 0.343349 0.287582
vt 0.405745 0.287582
vt 0.000286 0.139941
vt 0.000286 0.181991
vt 0.312267 0.181991
vt 0.384173 0.426527
vt 0.235763 0.426527
vt 0.235763 0.441208
vt 0.524793 0.327173
vt 0.376382 0.327173
vt 0.376382 0.341854
vt 0.935118 0.106163
vt 0.000286 0.106161
vt 0.000410 0.122476
vt 0.000287 0.036330
vt 0.000286 0.105588
vt 0.231519 0.105588
vt 0.544453 0.469149
vt 0.000286 0.469149
vt 0.000286 0.483831
vt 0.114068 0.296345
vt 0.342776 0.296345
vt 0.232092 0.087715
vt 0.228422 0.344633
vt 0.453460 0.326600
vt 0.463049 0.212246
vt 0.228422 0.296345
vt 0.114068 0.410699
vt 0.544454 0.468576
vt 0.645400 0.495663
vt 0.415611 0.374510
vt 0.422953 0.384977
vt 0.000286 0.511493
vt 0.935241 0.139368
vt 0.402804 0.359887
vt 0.399014 0.425954
vt 0.235190 0.411272
vt 0.375809 0.296918
vt 0.420782 0.510919
vt 0.417644 0.410699
vt 0.114641 0.385551
vt 0.440735 0.542321
vt 0.999711 0.035755
vt 0.999714 0.017729
vt 0.440735 0.531854
vt 0.375236 0.139941
vt 0.385399 0.244960
vt 0.438205 0.139941
vt 0.388496 0.098726
vt 0.405745 0.245533
vt 0.312267 0.139941
vt 0.384173 0.441208
vt 0.524793 0.341854
vt 0.935241 0.122478
vt 0.231520 0.036330
vt 0.544453 0.483831
vt 0.228422 0.296918
vt 0.144323 0.296918
vt 0.144323 0.344633
vt 0.228422 0.344633
vn 0.0000 1.0000 0.0000
vn 0.0000 -1.0000 0.0000
s 1
f 2/1/1 1/2/1 3/3/1
f 6/4/1 5/5/1 7/6/1
f 10/7/1 9/8/1 11/9/1
f 13/10/1 15/11/1 16/12/1
f 18/13/1 17/14/1 19/15/1
f 22/16/1 21/17/1 23/18/1
f 26/19/1 25/20/1 27/21/1
f 30/22/1 29/23/1 31/24/1
f 34/25/1 33/26/1 35/27/1
f 38/28/1 37/29/1 39/30/1
f 42/31/1 41/32/1 43/33/1
f 46/34/1 45/35/1 47/36/1
f 50/37/2 49/38/2 51/39/2
f 54/40/1 53/41/1 55/42/1
f 58/43/1 57/44/1 59/45/1
f 62/46/1 61/47/1 63/48/1
f 66/49/1 65/50/1 67/51/1
f 70/52/1 69/53/1 71/54/1
f 74/55/1 73/56/1 75/57/1
f 78/58/1 77/59/1 79/60/1
f 82/61/2 81/62/2 83/63/2
f 86/64/1 85/65/1 87/66/1
f 90/67/2 89/68/2 91/69/2
f 94/70/1 93/71/1 95/72/1
f 98/73/1 97/74/1 99/75/1
f 102/76/1 101/77/1 103/78/1
f 106/79/1 105/80/1 107/81/1
f 110/82/1 109/83/1 111/84/1
f 114/85/1 113/86/1 115/87/1
f 118/88/1 117/89/1 119/90/1
f 122/91/1 121/92/1 123/93/1
f 126/94/1 125/95/1 127/96/1
f 130/97/1 129/98/1 131/99/1
f 134/100/1 133/101/1 135/102/1
f 138/103/1 137/104/1 139/105/1
f 142/106/1 141/107/1 143/108/1
f 2/1/1 3/3/1 4/109/1
f 6/4/1 7/6/1 8/110/1
f 10/7/1 11/9/1 12/111/1
f 13/10/1 16/12/1 14/112/1
f 18/13/1 19/15/1 20/113/1
f 22/16/1 23/18/1 24/114/1
f 26/19/1 27/21/1 28/115/1
f 30/22/1 31/24/1 32/116/1
f 34/25/1 35/27/1 36/117/1
f 38/28/1 39/30/1 40/118/1
f 42/31/1 43/33/1 44/119/1
f 46/34/1 47/36/1 48/120/1
f 50/37/2 51/39/2 52/121/2
f 54/40/1 55/42/1 56/122/1
f 58/43/1 59/45/1 60/123/1
f 62/46/1 63/48/1 64/124/1
f 66/49/1 67/51/1 68/125/1
f 70/52/1 71/54/1 72/126/1
f 74/55/1 75/57/1 76/127/1
f 78/58/1 79/60/1 80/128/1
f 82/61/2 83/63/2 84/129/2
f 86/64/1 87/66/1 88/130/1
f 90/67/2 91/69/2 92/131/2
f 94/70/1 95/72/1 96/132/1
f 98/73/1 99/75/1 100/133/1
f 102/76/1 103/78/1 104/134/1
f 106/79/1 107/81/1 108/135/1
f 110/82/1 111/84/1 112/136/1
f 114/85/1 115/87/1 116/137/1
f 118/88/1 119/90/1 120/138/1
f 122/91/1 123/93/1 124/139/1
f 126/94/1 127/96/1 128/140/1
f 130/97/1 131/99/1 132/141/1
f 134/100/1 135/102/1 136/142/1
f 138/103/1 139/105/1 140/143/1
f 142/106/1 143/108/1 144/144/1
f 145/145/1 147/146/1 148/147/1
f 145/145/1 148/147/1 146/148/1
